<?xml version="1.0"?>
<svg xmlns="http://www.w3.org/2000/svg" xmlns:xlink="http://www.w3.org/1999/xlink" version="1.1" xml:space="preserve">
  <defs>
    <symbol id="email" width="100%" height="100%" viewBox="0 0 22 18">
      <path fill-rule="evenodd" clip-rule="evenodd" d="M1.37868 1.71193C0.5 2.59061 0.5 4.00482 0.5 6.83325V11.1666C0.5 13.995 0.5 15.4092 1.37868 16.2879C2.25736 17.1666 3.67157 17.1666 6.5 17.1666H15.5C18.3284 17.1666 19.7426 17.1666 20.6213 16.2879C21.5 15.4092 21.5 13.995 21.5 11.1666V6.83325C21.5 4.00483 21.5 2.59061 20.6213 1.71193C19.7426 0.833252 18.3284 0.833252 15.5 0.833252H6.5C3.67157 0.833252 2.25736 0.833252 1.37868 1.71193ZM4.5547 4.66787C4.09517 4.36152 3.4743 4.48569 3.16795 4.94522C2.8616 5.40475 2.98577 6.02562 3.4453 6.33197L9.8906 10.6288C10.5624 11.0767 11.4376 11.0767 12.1094 10.6288L18.5547 6.33197C19.0142 6.02562 19.1384 5.40475 18.8321 4.94522C18.5257 4.48569 17.9048 4.36152 17.4453 4.66787L11 8.96474L4.5547 4.66787Z" fill="currentColor" />
    </symbol>
    <symbol id="phone" width="100%" height="100%" viewBox="0 0 22 22">
      <path d="M0.599998 1.9001C0.599998 1.18213 1.18203 0.600098 1.9 0.600098H4.69873C5.33422 0.600098 5.87657 1.05953 5.98105 1.68638L6.94215 7.45301C7.03597 8.01596 6.75167 8.57426 6.24122 8.82949L4.22864 9.83578C5.67982 13.4419 8.55818 16.3203 12.1643 17.7715L13.1706 15.7589C13.4258 15.2484 13.9841 14.9641 14.5471 15.0579L20.3137 16.019C20.9406 16.1235 21.4 16.6659 21.4 17.3014V20.1001C21.4 20.8181 20.818 21.4001 20.1 21.4001H17.5C8.16639 21.4001 0.599998 13.8337 0.599998 4.5001V1.9001Z" fill="currentColor" />
    </symbol>
    <symbol id="menu" width="100%" height="100%" viewBox="0 0 20 18">
      <path fill-rule="evenodd" clip-rule="evenodd" d="M0.199951 2.0001C0.199951 1.2269 0.826752 0.600098 1.59995 0.600098H18.4C19.1732 0.600098 19.8 1.2269 19.8 2.0001C19.8 2.7733 19.1732 3.4001 18.4 3.4001H1.59995C0.826752 3.4001 0.199951 2.7733 0.199951 2.0001Z" fill="currentColor" />
      <path fill-rule="evenodd" clip-rule="evenodd" d="M0.199951 9.0001C0.199951 8.2269 0.826752 7.6001 1.59995 7.6001H18.4C19.1732 7.6001 19.8 8.2269 19.8 9.0001C19.8 9.7733 19.1732 10.4001 18.4 10.4001H1.59995C0.826752 10.4001 0.199951 9.7733 0.199951 9.0001Z" fill="currentColor" />
      <path fill-rule="evenodd" clip-rule="evenodd" d="M0.199951 16.0001C0.199951 15.2269 0.826752 14.6001 1.59995 14.6001H18.4C19.1732 14.6001 19.8 15.2269 19.8 16.0001C19.8 16.7733 19.1732 17.4001 18.4 17.4001H1.59995C0.826752 17.4001 0.199951 16.7733 0.199951 16.0001Z" fill="currentColor" />
    </symbol>
    <symbol id="arrow-right" width="100%" height="100%" viewBox="0 0 56 33">
      <path fill-rule="evenodd" clip-rule="evenodd" d="M46.3457 17.3877H0V15.0694H46.3096C44.7802 14.3408 43.4526 13.4367 42.285 12.3545C39.1978 9.49338 37.3552 5.49812 35.7447 0.633058L37.737 0C39.3238 4.79352 41.0358 8.372 43.7244 10.8638C46.1164 13.0808 49.3834 14.5275 54.3045 15.0694H56V15.216V17.2635V17.3877H54.5113C49.4737 17.911 46.1487 19.3622 43.7235 21.6053C41.0355 24.0915 39.3238 27.6642 37.737 32.4574L35.7447 31.8243C37.3553 26.959 39.1981 22.9689 42.2857 20.1132C43.4625 19.0249 44.8016 18.1174 46.3457 17.3877Z" fill="currentColor" />
    </symbol>
    <symbol id="arrow-left" width="100%" height="100%" viewBox="0 0 56 33">
      <path fill-rule="evenodd" clip-rule="evenodd" d="M9.6543 17.3877H56V15.0694H9.6904C11.2198 14.3408 12.5474 13.4367 13.715 12.3545C16.8022 9.49338 18.6448 5.49812 20.2553 0.633058L18.263 0C16.6762 4.79352 14.9642 8.372 12.2756 10.8638C9.8836 13.0808 6.6166 14.5275 1.6955 15.0694H0V15.216V17.2635V17.3877H1.4887C6.5263 17.911 9.8513 19.3622 12.2765 21.6053C14.9645 24.0915 16.6762 27.6642 18.263 32.4574L20.2553 31.8243C18.6447 26.959 16.8019 22.9689 13.7143 20.1132C12.5375 19.0249 11.1984 18.1174 9.6543 17.3877Z" fill="currentColor" />
    </symbol>
    <symbol id="gal-ochka" width="100%" height="100%" viewBox="0 0 12 10">
      <path d="M6.23497 8.79946C5.9649 9.16602 5.54433 9.3913 5.0896 9.41369C4.63487 9.43632 4.19445 9.25304 3.88975 8.91464L1.15929 5.88456C0.725328 5.40328 0.763876 4.6614 1.24515 4.22744C1.72689 3.79348 2.46831 3.83226 2.90227 4.31377L4.83407 6.45771C4.8627 6.48956 4.90425 6.50664 4.94695 6.50456C4.98988 6.50249 5.02912 6.48102 5.05475 6.44686L9.02546 1.0614C9.40979 0.539728 10.1443 0.428699 10.6662 0.813259C11.1876 1.19782 11.2984 1.93232 10.9139 2.45376L6.23497 8.79946Z" fill="currentColor" />
    </symbol>
    <symbol id="to-right" width="100%" height="100%" viewBox="0 0 8 14">
      <path d="M5.63663 7.00019L1.15148 2.51504C0.7935 2.15706 0.7935 1.57666 1.15148 1.21868C1.50946 0.8607 2.08986 0.8607 2.44784 1.21868L7.58118 6.35201C7.93916 6.70999 7.93916 7.29039 7.58118 7.64838L2.44784 12.7817C2.08986 13.1397 1.50946 13.1397 1.15148 12.7817C0.7935 12.4237 0.7935 11.8433 1.15148 11.4853L5.63663 7.00019Z" fill="currentColor" />
    </symbol>
    <symbol id="to-left" width="100%" height="100%" viewBox="0 0 8 14">
      <path d="M2.36337 7.00019L6.84852 2.51504C7.2065 2.15706 7.2065 1.57666 6.84852 1.21868C6.49054 0.8607 5.91014 0.8607 5.55216 1.21868L0.418823 6.35201C0.0608425 6.70999 0.0608425 7.29039 0.418823 7.64838L5.55216 12.7817C5.91014 13.1397 6.49054 13.1397 6.84852 12.7817C7.2065 12.4237 7.2065 11.8433 6.84852 11.4853L2.36337 7.00019Z" fill="currentColor" />
    </symbol>
    <symbol id="play" width="100%" height="100%" viewBox="0 0 32 38">
      <path d="M5.27275 38C4.93519 38 4.61146 37.8332 4.37278 37.5363C4.13409 37.2393 4 36.8366 4 36.4167V1.58307C4.00004 1.30794 4.05771 1.03756 4.16732 0.79859C4.27694 0.559623 4.43472 0.360315 4.62511 0.220312C4.81551 0.0803081 5.03194 0.00444103 5.25308 0.000189119C5.47422 -0.00406279 5.69243 0.0634472 5.88621 0.196064L31.3411 17.6129C31.5407 17.7495 31.7071 17.9503 31.823 18.1943C31.9389 18.4383 32 18.7165 32 18.9999C32 19.2833 31.9389 19.5615 31.823 19.8054C31.7071 20.0494 31.5407 20.2502 31.3411 20.3869L5.88621 37.8037C5.69829 37.9324 5.48727 37.9999 5.27275 38Z" fill="currentColor" />
    </symbol>
    <symbol id="cross" width="100%" height="100%" viewBox="0 0 16 16">
      <path d="M1 15L15 1M1 1L15 15" fill="none" stroke="currentColor" stroke-width="2" stroke-linecap="round" stroke-linejoin="round" />
    </symbol>
    <symbol id="telegramm" width="100%" height="100%" viewBox="0 0 24 24" fill="none">
      <path d="M16.906 7.18327C16.9108 7.18327 16.9171 7.18327 16.9235 7.18327C17.09 7.18327 17.2446 7.23506 17.3713 7.3243L17.3689 7.32271C17.4614 7.40319 17.5235 7.51633 17.5386 7.64382V7.64622C17.5546 7.74343 17.5633 7.85498 17.5633 7.96892C17.5633 8.02072 17.5618 8.07171 17.5578 8.12271V8.11554C17.3785 10.0032 16.6008 14.5809 16.2056 16.694C16.0382 17.5888 15.7092 17.8884 15.3904 17.9171C14.698 17.9817 14.1721 17.4598 13.5012 17.0199C12.451 16.3307 11.8574 15.902 10.8382 15.2303C9.65976 14.455 10.4239 14.0271 11.0948 13.3307C11.2709 13.1474 14.3235 10.3705 14.3833 10.1187C14.3865 10.1036 14.388 10.0869 14.388 10.0693C14.388 10.0072 14.3649 9.9506 14.3275 9.90757C14.2861 9.88048 14.2343 9.86534 14.1801 9.86534C14.1442 9.86534 14.11 9.87251 14.0781 9.88446L14.0797 9.88367C13.9745 9.90757 12.2969 11.0162 9.04701 13.2096C8.69243 13.4892 8.24462 13.6661 7.75697 13.6869H7.75219C7.06135 13.6032 6.43426 13.4494 5.83904 13.2303L5.89801 13.2494C5.1506 13.0056 4.55697 12.8773 4.60797 12.4645C4.63506 12.2499 4.93094 12.0303 5.49562 11.8056C8.97397 10.29 11.2935 9.2911 12.4542 8.80876C13.7347 8.12908 15.2191 7.56972 16.7801 7.20717L16.9052 7.18247L16.906 7.18327ZM11.9721 0C5.35697 0.0159363 0 5.38247 0 12C0 18.6271 5.37211 24 12 24C18.6279 24 24 18.6279 24 12C24 5.38247 18.643 0.0159363 12.0295 0H12.0279C12.0093 0 11.9907 0 11.9721 0Z" fill="currentColor" />
    </symbol>
    <symbol id="whatsapp" width="100%" height="100%" viewBox="0 0 24 24" fill="none">
      <path fill-rule="evenodd" clip-rule="evenodd" d="M18.9852 16.9453C18.696 17.764 17.5464 18.4412 16.6296 18.6393C16.002 18.7725 15.1836 18.8779 12.426 17.7352C9.3288 16.452 5.028 11.8812 5.028 8.83945C5.028 7.29099 5.9208 5.48789 7.482 5.48789C8.2332 5.48789 8.3988 5.50254 8.646 6.09551C8.9352 6.79412 9.64081 8.51535 9.7248 8.6918C10.0716 9.41561 9.37199 9.83934 8.86439 10.4695C8.70239 10.6592 8.51881 10.8643 8.72401 11.2172C8.92801 11.5629 9.6336 12.7129 10.6704 13.6359C12.0096 14.8291 13.0956 15.21 13.4844 15.3721C13.7736 15.4921 14.1192 15.4641 14.3304 15.2385C14.598 14.9492 14.9304 14.4692 15.2688 13.9963C15.5076 13.6578 15.8112 13.6155 16.1292 13.7355C16.344 13.81 19.074 15.0778 19.1892 15.2807C19.2744 15.4283 19.2744 16.1267 18.9852 16.9453ZM12.0024 0H11.9964C5.38079 0 0 5.38242 0 12C0 14.624 0.846008 17.0584 2.28481 19.033L0.789606 23.492L5.40121 22.0184C7.29841 23.2739 9.5628 24 12.0024 24C18.618 24 24 18.6176 24 12C24 5.38242 18.618 0 12.0024 0Z" fill="currentColor" />
    </symbol>
    <symbol id="smartphone" width="100%" height="100%" viewBox="0 0 24 24" fill="none">
      <path fill-rule="evenodd" clip-rule="evenodd" d="M12 0C5.37258 0 0 5.37258 0 12C0 18.6274 5.37258 24 12 24C18.6274 24 24 18.6274 24 12C24 5.37258 18.6274 0 12 0ZM7 10.6C7 7.96013 7 6.6402 7.73223 5.8201C8.46447 5 9.64298 5 12 5C14.357 5 15.5355 5 16.2678 5.8201C17 6.6402 17 7.96013 17 10.6V13.4C17 16.0399 17 17.3598 16.2678 18.1799C15.5355 19 14.357 19 12 19C9.64298 19 8.46447 19 7.73223 18.1799C7 17.3598 7 16.0399 7 13.4V10.6ZM9.65625 7.1C9.65625 6.81005 9.86612 6.575 10.125 6.575H13.875C14.1339 6.575 14.3438 6.81005 14.3438 7.1C14.3438 7.38995 14.1339 7.625 13.875 7.625H10.125C9.86612 7.625 9.65625 7.38995 9.65625 7.1ZM13.25 15.5C13.25 16.2732 12.6904 16.9 12 16.9C11.3096 16.9 10.75 16.2732 10.75 15.5C10.75 14.7268 11.3096 14.1 12 14.1C12.6904 14.1 13.25 14.7268 13.25 15.5Z" fill="currentColor" />
    </symbol>
    <!--  -->
    <!--  -->
    <!--  -->
  </defs>
</svg>