<svg width="58" height="68" viewBox="0 0 58 68" fill="none" xmlns="http://www.w3.org/2000/svg">
<path d="M4.95273 4.95638V57.2537M4.95273 4.95638H48.8364M4.95273 4.95638L2 2M4.95273 57.2537H48.8364M4.95273 57.2537L2 60.1081M48.8364 4.95638V57.2537M48.8364 4.95638L51.6873 2M2 2C2.74673 2.84954 4.688 4.03888 6.88727 2C7.56599 2.9175 9.35127 4.20199 11.0618 2C11.7405 2.9175 13.7905 4.20199 15.3382 2C16.1187 2.98545 18.1484 4.3651 20.0218 2C20.9722 3.01944 22.7709 4.14083 24.9091 2C25.6558 3.0874 27.6175 4.60977 29.4909 2C30.4751 3.01944 32.8102 4.44666 34.2764 2C34.9551 3.0874 36.7607 4.60977 38.5527 2C39.2655 2.98545 41.1186 4.3651 42.8291 2C43.3722 3.01944 44.9673 4.44666 47.0036 2C47.886 2.71361 50.0582 3.71266 51.6873 2M2 2C2.95037 3.12138 4.28073 5.56804 2 6.3836C2.95037 6.96127 4.28073 8.52442 2 10.1555C3.01818 10.8691 4.44364 12.6022 2 13.8255C2.95037 14.5051 4.28073 16.211 2 17.5974C2.98417 18.379 4.36218 20.2888 2 21.6752C3.05219 22.4229 4.52509 24.3054 2 25.8549C3.01818 26.6364 4.44364 28.5462 2 29.9327C3.08599 30.7823 4.60655 32.8279 2 34.2143C3.01818 34.9958 4.44364 37.0076 2 38.8018C3.18781 39.5154 4.85091 41.3504 2 42.9815C3.01818 43.7971 4.44364 45.8156 2 47.3651C3.08599 48.3167 4.60655 50.5662 2 51.9526C2.81455 52.5983 3.95491 54.3177 2 56.0304C2.95037 56.642 4.28073 58.3139 2 60.1081M48.8364 57.2537L51.7891 60.1081M2 60.1081C2.98417 59.1227 5.33964 57.743 6.88727 60.1081C7.56599 59.3266 9.31055 58.2324 10.8582 60.1081C11.5709 59.2585 13.3833 58.0692 14.9309 60.1081C15.6436 59.2247 17.456 57.9877 19.0036 60.1081C19.8182 59.2926 21.8545 58.1508 23.4836 60.1081C24.1624 59.2926 25.9476 58.1508 27.6582 60.1081C28.5067 59.1906 30.6313 57.9061 32.3418 60.1081C33.2242 59.0887 35.4371 57.6615 37.2291 60.1081C38.1455 59.1566 40.4058 57.8246 42.1164 60.1081C42.9987 59.0887 45.1709 57.6615 46.8 60.1081C47.7164 59.1227 49.9971 57.743 51.7891 60.1081M51.7891 60.1081C49.5084 58.0692 50.7709 56.5401 51.6873 56.0304C49.6509 54.3177 50.9067 52.5983 51.7891 51.9526C49.9971 50.9739 50.9746 48.4865 51.6873 47.3651C49.6509 45.8156 50.8387 43.7971 51.6873 42.9815C49.9767 41.5951 50.9746 39.6174 51.6873 38.8018C49.8138 37.2523 50.9067 35.0978 51.6873 34.2143C49.7324 32.7463 50.8727 30.7482 51.6873 29.9327C49.9767 28.6278 50.9746 26.6705 51.6873 25.8549C49.9767 24.3054 50.9746 22.4229 51.6873 21.6752C49.9767 20.0441 50.9746 18.2771 51.6873 17.5974C49.8138 16.1294 50.9067 14.4712 51.6873 13.8255C50.0582 12.3575 51.0086 10.7672 51.6873 10.1555C50.0582 8.68753 51.0086 7.02925 51.6873 6.3836C50.1396 5.07871 51.0424 2.9175 51.6873 2" stroke="white" stroke-width="1.22333"/>
<path d="M20.858 45.0213V21.9835C27.5493 12.7332 35.2647 14.324 35.2647 18.8608V45.0213C35.2647 48.4386 37.1424 54.1538 41.5462 54.1538C46.1209 54.1538 50.081 46.9692 44.8235 49.9704C41.2731 51.9973 39.8393 47.4958 39.8393 45.0213V18.8608C39.8393 10.4353 28.1636 9.78718 20.858 18.8608C20.858 7.37147 11.3673 14.0883 11.3673 19.3322C11.3673 20.0775 11.777 20.4949 12.6647 18.8608C14.7129 15.09 16.0784 17.2111 16.0784 18.8608V45.0213C16.0784 46.1408 20.858 46.1997 20.858 45.0213Z" fill="white"/>
<path d="M58 50.5596C49.1921 50.5596 45.3686 46.3763 45.3686 33.2373C45.3686 46.3763 41.545 50.5596 32.8053 50.5596C41.545 50.5596 45.3686 55.2144 45.3686 68C45.3686 55.1555 49.2603 50.5596 58 50.5596Z" fill="#FFDA79"/>
</svg>
