<svg width="74" height="90" viewBox="0 0 74 90" fill="none" xmlns="http://www.w3.org/2000/svg">
<path d="M0 7.47686C0.0143786 7.35217 0.0311543 7.1534 0.050325 6.88009C0.0694957 6.60218 0.0886687 6.28102 0.107839 5.91684C0.131804 5.54783 0.153372 5.14983 0.172543 4.72331C0.191714 4.29195 0.210887 3.86312 0.230057 3.4366C0.273193 2.4347 0.316329 1.33709 0.359464 0.143786H2.19272L4.20572 6.039L6.21872 0.143786H8.01607C8.06877 1.33709 8.1215 2.4347 8.17421 3.4366C8.1934 3.86312 8.21495 4.29195 8.23892 4.72331C8.2629 5.14983 8.28685 5.54783 8.31082 5.91684C8.33479 6.28102 8.35874 6.60218 8.38271 6.88009C8.40668 7.1534 8.42824 7.35217 8.44742 7.47686H7.22522L7.00957 1.08564L4.81682 7.47686H3.59464L1.40192 1.08564L1.22218 7.47686H0ZM10.7192 3.66665C10.7192 3.31674 10.7168 2.97165 10.712 2.6314C10.712 2.29091 10.7073 1.96975 10.6977 1.66791C10.6929 1.36125 10.6833 1.07851 10.6689 0.819463C10.6545 0.556047 10.6354 0.330822 10.6114 0.143786H12.0492V3.0195H15.6439V0.143786H16.9739V3.95422C16.9739 4.30391 16.9739 4.649 16.9739 4.98948C16.9787 5.32974 16.9835 5.6532 16.9883 5.95986C16.9979 6.26676 17.0099 6.5495 17.0242 6.80831C17.0386 7.06713 17.0578 7.29005 17.0817 7.47686H15.6439V4.06189H12.0492V7.47686H10.7192V3.66665ZM20.245 3.99011C20.2594 4.41181 20.3241 4.77852 20.4392 5.09002C20.559 5.40151 20.7195 5.66033 20.9208 5.86646C21.1269 6.06776 21.3666 6.21868 21.6398 6.31944C21.9177 6.41998 22.2196 6.47036 22.5456 6.47036C23.0106 6.47036 23.4658 6.41768 23.9115 6.31231C24.3573 6.20671 24.8006 6.01991 25.2416 5.75143L25.3854 6.93761C25.1315 7.06713 24.8821 7.17732 24.6377 7.26843C24.3932 7.35953 24.1489 7.43361 23.9043 7.49112C23.66 7.54864 23.4106 7.58959 23.1566 7.61351C22.9075 7.64227 22.6438 7.65654 22.3659 7.65654C21.9058 7.65654 21.4672 7.57762 21.0502 7.41934C20.6333 7.25646 20.2666 7.01905 19.9503 6.70755C19.634 6.39122 19.3823 6.00058 19.1954 5.53564C19.0085 5.07092 18.915 4.53167 18.915 3.91811C18.915 3.32387 18.9941 2.78714 19.1523 2.30771C19.3152 1.82366 19.5453 1.4114 19.8424 1.07115C20.1396 0.726062 20.5015 0.462414 20.928 0.280438C21.3546 0.0934019 21.8339 0 22.3659 0C22.7589 0 23.1063 0.0478519 23.4083 0.143786C23.7104 0.234888 23.9715 0.36418 24.1919 0.531891C24.4125 0.695002 24.597 0.88664 24.7456 1.10703C24.894 1.32766 25.0116 1.56485 25.0979 1.81883C25.189 2.07282 25.2536 2.33899 25.2918 2.6169C25.3302 2.88998 25.3493 3.16099 25.3493 3.42923V3.70967C25.3493 3.82953 25.347 3.92293 25.3422 3.99011H20.245ZM24.0555 2.98361C24.0555 2.67671 24.0099 2.40594 23.9188 2.17128C23.8325 1.93156 23.7079 1.73026 23.545 1.56715C23.3867 1.40427 23.1974 1.28211 22.977 1.20067C22.7566 1.11923 22.5168 1.07851 22.258 1.07851C21.7308 1.07851 21.2995 1.23426 20.964 1.54575C20.6285 1.85242 20.408 2.33163 20.3025 2.98361H24.0555ZM31.3237 3.66665C31.3237 3.31674 31.3214 2.97165 31.3165 2.6314C31.3165 2.29091 31.3117 1.96975 31.3023 1.66791C31.2974 1.36125 31.2878 1.07851 31.2733 0.819463C31.259 0.556047 31.2399 0.330822 31.2158 0.143786H32.6536V3.0195H36.2485V0.143786H37.5785V3.95422C37.5785 4.30391 37.5785 4.649 37.5785 4.98948C37.5833 5.32974 37.5879 5.6532 37.5927 5.95986C37.6024 6.26676 37.6144 6.5495 37.6288 6.80831C37.6431 7.06713 37.6622 7.29005 37.6864 7.47686H36.2485V4.06189H32.6536V7.47686H31.3237V3.66665ZM41.9638 10.9995H40.4542C40.5883 10.7409 40.7224 10.4676 40.8568 10.18C40.9957 9.89246 41.1299 9.60006 41.2594 9.30305C41.3935 9.01065 41.5205 8.71825 41.6404 8.42585C41.7602 8.13827 41.8704 7.86036 41.9709 7.59189L42.0358 7.41934L40.1305 2.69604C40.0012 2.37005 39.8429 2.00334 39.6561 1.59614C39.4739 1.18871 39.2487 0.704435 38.9802 0.143786H40.4901L42.6756 5.67965L44.7316 0.143786H46.2415C46.0018 0.699834 45.8005 1.18135 45.6376 1.58878C45.4793 1.99138 45.3358 2.35809 45.2062 2.68891L41.9638 10.9995ZM52.604 3.1274H53.2152C53.2967 3.1274 53.3829 3.11773 53.4738 3.09864C53.5649 3.07471 53.656 3.034 53.7471 2.97648C53.8382 2.91897 53.9268 2.84213 54.0131 2.74642C54.0993 2.65049 54.1808 2.5258 54.2576 2.37235C54.32 2.24789 54.3798 2.09927 54.4373 1.92673C54.4948 1.75419 54.5523 1.58164 54.6098 1.4091C54.6722 1.23656 54.7345 1.07368 54.7966 0.920229C54.8638 0.761949 54.9358 0.634957 55.0124 0.539253C55.3 0.179673 55.6715 0 56.1268 0C56.2322 0 56.3521 0.0096624 56.4862 0.0287572C56.6251 0.0478519 56.7689 0.0862714 56.9175 0.143786L56.63 1.23656C56.5437 1.19814 56.4719 1.17421 56.4144 1.16455C56.3617 1.15512 56.3017 1.15029 56.2345 1.15029C56.1388 1.15029 56.05 1.17904 55.9685 1.23656C55.8919 1.28924 55.8367 1.35642 55.8034 1.43786C55.7459 1.59131 55.6883 1.76132 55.6308 1.94835C55.5733 2.13033 55.511 2.31967 55.4438 2.51637C55.4054 2.6169 55.3672 2.71284 55.3288 2.80394C55.2952 2.89481 55.2521 2.98108 55.1992 3.06252C55.1514 3.14419 55.0916 3.2208 55.0196 3.29258C54.9478 3.35975 54.8615 3.4244 54.7607 3.48675C54.9094 3.53 55.0532 3.61374 55.1921 3.73843C55.3311 3.85829 55.4629 4.00921 55.5876 4.19141C55.7169 4.38788 55.8393 4.61541 55.9543 4.87445C56.0741 5.12844 56.1843 5.39921 56.2849 5.68678C56.3905 5.96952 56.4887 6.26423 56.5796 6.57089C56.6755 6.87779 56.7643 7.17963 56.8458 7.47686H55.4797C55.3934 7.09819 55.3097 6.76276 55.2282 6.47036C55.1466 6.17313 55.0628 5.90971 54.9765 5.67965C54.8903 5.4496 54.7992 5.25059 54.7032 5.08288C54.6121 4.91517 54.5116 4.76656 54.4014 4.63703C54.2815 4.49808 54.1378 4.38535 53.97 4.29931C53.8069 4.21281 53.6273 4.16979 53.4308 4.16979H52.604V7.47686H51.274V4.16979H50.4472C50.2507 4.16979 50.0685 4.21281 49.9008 4.29931C49.7379 4.38535 49.5964 4.49808 49.4768 4.63703C49.3664 4.76656 49.2633 4.91517 49.1676 5.08288C49.0765 5.25059 48.9877 5.4496 48.9017 5.67965C48.8152 5.90971 48.7314 6.17313 48.65 6.47036C48.5685 6.76276 48.4846 7.09819 48.3983 7.47686H47.0322C47.1139 7.17963 47.2001 6.87779 47.2913 6.57089C47.387 6.2594 47.4877 5.95756 47.5931 5.66516C47.7033 5.37276 47.8183 5.09715 47.9382 4.83833C48.058 4.57952 48.1825 4.35199 48.312 4.15529C48.4367 3.97332 48.566 3.827 48.7001 3.71681C48.8393 3.60178 48.9783 3.52517 49.1172 3.48675C49.0167 3.4244 48.9302 3.35975 48.8584 3.29258C48.7866 3.2208 48.7243 3.14419 48.6716 3.06252C48.6235 2.98108 48.5805 2.89481 48.5421 2.80394C48.5037 2.71284 48.4678 2.6169 48.4342 2.51637C48.3672 2.31967 48.3049 2.13033 48.2474 1.94835C48.1899 1.76132 48.1323 1.59131 48.0748 1.43786C48.0412 1.35642 47.9837 1.28924 47.9023 1.23656C47.8254 1.17904 47.7392 1.15029 47.6435 1.15029C47.5763 1.15029 47.5139 1.15512 47.4564 1.16455C47.4038 1.17421 47.3343 1.19814 47.248 1.23656L46.9604 0.143786C47.109 0.0862714 47.2503 0.0478519 47.3847 0.0287572C47.5236 0.0096624 47.6458 0 47.7514 0C48.2066 0 48.578 0.179673 48.8655 0.539253C48.9424 0.634957 49.0118 0.761949 49.0742 0.920229C49.1411 1.07368 49.2035 1.23656 49.261 1.4091C49.3233 1.58164 49.3832 1.75419 49.4407 1.92673C49.4982 2.09927 49.5582 2.24789 49.6203 2.37235C49.6972 2.5258 49.7786 2.65049 49.8649 2.74642C49.9512 2.84213 50.0397 2.91897 50.1308 2.97648C50.222 3.034 50.313 3.07471 50.4042 3.09864C50.4953 3.11773 50.5815 3.1274 50.663 3.1274H51.274V0.143786H52.604V3.1274ZM58.758 3.66665C58.758 3.31674 58.7557 2.97165 58.7509 2.6314C58.7509 2.29091 58.746 1.96975 58.7366 1.66791C58.7318 1.36125 58.7221 1.07851 58.7076 0.819463C58.6933 0.556047 58.6743 0.330822 58.6501 0.143786H60.088V3.0195H63.6828V0.143786H65.0128V3.95422C65.0128 4.30391 65.0128 4.649 65.0128 4.98948C65.0176 5.32974 65.0222 5.6532 65.0271 5.95986C65.0367 6.26676 65.0487 6.5495 65.0632 6.80831C65.0774 7.06713 65.0965 7.29005 65.1207 7.47686H63.6828V4.06189H60.088V7.47686H58.758V3.66665ZM70.8001 1.15029C70.3303 1.15029 69.9374 1.24622 69.6211 1.43786C69.3096 1.62466 69.0602 1.87635 68.8734 2.19268C68.6866 2.50417 68.5522 2.86375 68.4708 3.27118C68.3942 3.67861 68.3558 4.09778 68.3558 4.52937C68.3558 4.80728 68.3822 5.06356 68.4349 5.29845C68.4924 5.52851 68.569 5.72981 68.6649 5.90235C68.7607 6.07006 68.8711 6.20188 68.9955 6.29782C69.1202 6.38892 69.2544 6.43447 69.3981 6.43447C69.5564 6.43447 69.717 6.38179 69.8799 6.27619C70.0476 6.17083 70.2105 6.02934 70.3688 5.8522C70.5316 5.66999 70.6899 5.46156 70.8431 5.22667C70.9966 4.99178 71.1404 4.74493 71.2747 4.48612C71.4088 4.22247 71.5333 3.95653 71.6483 3.68805C71.7634 3.4198 71.8618 3.16559 71.9433 2.9261C72.0247 2.68155 72.0871 2.45885 72.1301 2.25732C72.1782 2.05625 72.2021 1.89084 72.2021 1.76132V1.29407C72.0822 1.27015 71.9074 1.24139 71.6773 1.2078C71.4519 1.16938 71.1597 1.15029 70.8001 1.15029ZM72.4176 4.09778C72.2644 4.50521 72.0799 4.91977 71.8641 5.3417C71.6532 5.76339 71.4111 6.1469 71.1381 6.49198C70.8648 6.83224 70.5629 7.11268 70.2321 7.33307C69.9063 7.54864 69.5564 7.65654 69.1826 7.65654C68.8805 7.65654 68.5978 7.58959 68.3341 7.45524C68.0705 7.32111 67.8404 7.12211 67.644 6.85846C67.4523 6.59505 67.3014 6.26906 67.1912 5.88072C67.0808 5.48778 67.0258 5.03733 67.0258 4.52937C67.0258 3.95883 67.1024 3.40301 67.2558 2.86145C67.4091 2.31484 67.644 1.8308 67.9603 1.4091C68.2766 0.982574 68.6792 0.642321 69.1681 0.388337C69.657 0.129293 70.2369 0 70.908 0C71.3729 0 71.8354 0.0310591 72.2955 0.0934046C72.7556 0.150919 73.1679 0.227758 73.532 0.323462V3.66665C73.532 4.57239 73.5753 5.33457 73.6613 5.95273C73.7478 6.56629 73.8603 7.07426 73.9993 7.47686H72.7411C72.6884 7.36183 72.6406 7.18929 72.5975 6.95923C72.5591 6.72917 72.5255 6.48232 72.4968 6.21868C72.4729 5.95043 72.4535 5.68908 72.4393 5.4351C72.425 5.18112 72.4176 4.97499 72.4176 4.81694V4.09778Z" fill="black"/>
<path d="M12.3081 18.8646V77.8743M12.3081 18.8646H61.8854M12.3081 18.8646L8.97223 15.5288M12.3081 77.8743H61.8854M12.3081 77.8743L8.97223 81.0951M61.8854 18.8646V77.8743M61.8854 18.8646L65.1062 15.5288M8.97223 15.5288C9.81585 16.4874 12.009 17.8294 14.4936 15.5288C15.2604 16.5641 17.2773 18.0134 19.2098 15.5288C19.9766 16.5641 22.2925 18.0134 24.041 15.5288C24.9228 16.6407 27.2158 18.1975 29.3323 15.5288C30.406 16.6791 32.4381 17.9444 34.8537 15.5288C35.6973 16.7558 37.9134 18.4735 40.03 15.5288C41.1418 16.6791 43.7799 18.2895 45.4363 15.5288C46.2031 16.7558 48.243 18.4735 50.2675 15.5288C51.0727 16.6407 53.1662 18.1975 55.0987 15.5288C55.7123 16.6791 57.5143 18.2895 59.8149 15.5288C60.8117 16.334 63.2657 17.4613 65.1062 15.5288M8.97223 15.5288C10.0459 16.7941 11.5489 19.5548 8.97223 20.475C10.0459 21.1269 11.5489 22.8906 8.97223 24.7311C10.1225 25.5363 11.7329 27.4918 8.97223 28.8721C10.0459 29.639 11.5489 31.5638 8.97223 33.1282C10.0841 34.0101 11.6409 36.1649 8.97223 37.7293C10.1609 38.573 11.8249 40.6971 8.97223 42.4455C10.1225 43.3273 11.7329 45.4823 8.97223 47.0466C10.1991 48.0053 11.917 50.3135 8.97223 51.8779C10.1225 52.7597 11.7329 55.0296 8.97223 57.0541C10.3142 57.8593 12.193 59.9299 8.97223 61.7703C10.1225 62.6905 11.7329 64.9681 8.97223 66.7165C10.1991 67.7902 11.917 70.3284 8.97223 71.8928C9.89246 72.6214 11.1808 74.5615 8.97223 76.494C10.0459 77.1841 11.5489 79.0706 8.97223 81.0951M61.8854 77.8743L65.2212 81.0951M8.97223 81.0951C10.0841 79.9833 12.7452 78.4265 14.4936 81.0951C15.2604 80.2133 17.2313 78.9786 18.9797 81.0951C19.7849 80.1365 21.8324 78.7945 23.5809 81.0951C24.3861 80.0983 26.4336 78.7025 28.182 81.0951C29.1022 80.1749 31.4028 78.8866 33.2433 81.0951C34.01 80.1749 36.027 78.8866 37.9594 81.0951C38.9181 80.0599 41.3183 78.6105 43.2508 81.0951C44.2476 79.9448 46.7476 78.3344 48.7721 81.0951C49.8074 80.0214 52.361 78.5185 54.2935 81.0951C55.2903 79.9448 57.7444 78.3344 59.5848 81.0951C60.6201 79.9833 63.1967 78.4265 65.2212 81.0951M65.2212 81.0951C62.6446 78.7945 64.0709 77.0691 65.1062 76.494C62.8056 74.5615 64.2244 72.6214 65.2212 71.8928C63.1967 70.7886 64.301 67.9819 65.1062 66.7165C62.8056 64.9681 64.1475 62.6905 65.1062 61.7703C63.1737 60.2059 64.301 57.9744 65.1062 57.0541C62.9897 55.3057 64.2244 52.8747 65.1062 51.8779C62.8976 50.2214 64.186 47.9669 65.1062 47.0466C63.1737 45.5743 64.301 43.3657 65.1062 42.4455C63.1737 40.6971 64.301 38.573 65.1062 37.7293C63.1737 35.8889 64.301 33.895 65.1062 33.1282C62.9897 31.4718 64.2244 29.6006 65.1062 28.8721C63.2657 27.2157 64.3394 25.4213 65.1062 24.7311C63.2657 23.0747 64.3394 21.2036 65.1062 20.475C63.3578 19.0027 64.3776 16.5641 65.1062 15.5288" stroke="black" stroke-width="1.38034"/>
<path d="M30.2769 64.0718V38.0772C37.8364 27.6396 46.5528 29.4346 46.5528 34.5537V64.0718C46.5528 67.9278 48.6741 74.3766 53.6493 74.3766C58.8176 74.3766 63.2915 66.2698 57.3519 69.6562C53.3408 71.9432 51.721 66.864 51.721 64.0718V34.5537C51.721 25.0468 38.5304 24.3155 30.2769 34.5537C30.2769 21.5897 19.5549 29.1687 19.5549 35.0856C19.5549 35.9265 20.0177 36.3975 21.0206 34.5537C23.3345 30.2989 24.8772 32.6922 24.8772 34.5537V64.0718C24.8772 65.3351 30.2769 65.4016 30.2769 64.0718Z" fill="black"/>
<path d="M72.2379 70.3211C62.2873 70.3211 57.9677 65.6007 57.9677 50.7754C57.9677 65.6007 53.6479 70.3211 43.7743 70.3211C53.6479 70.3211 57.9677 75.5733 57.9677 89.9999C57.9677 75.5068 62.3643 70.3211 72.2379 70.3211Z" fill="#FFDA79"/>
</svg>
