<svg width="82" height="98" viewBox="0 0 82 98" fill="none" xmlns="http://www.w3.org/2000/svg">
<path d="M12.3393 18.6159V70.3313M12.3393 18.6159H61.9684M12.3393 18.6159L9 15.6924M12.3393 70.3313H61.9684M12.3393 70.3313L9 73.1539M61.9684 70.3313V18.6159M61.9684 70.3313L65.3077 73.1539M61.9684 18.6159L65.1925 15.6924M9 15.6924C9.84442 16.5325 12.0399 17.7086 14.5271 15.6924C15.2948 16.5997 17.3137 17.8699 19.2482 15.6924C20.0159 16.5997 22.3342 17.8699 24.0845 15.6924C24.9673 16.6669 27.2626 18.0312 29.3813 15.6924C30.456 16.7005 32.4903 17.8094 34.9084 15.6924C35.7529 16.7677 37.9714 18.2731 40.0901 15.6924C41.2032 16.7005 43.844 18.1118 45.5021 15.6924C46.2698 16.7677 48.3118 18.2731 50.3384 15.6924C51.1444 16.6669 53.2401 18.0312 55.1746 15.6924C55.7887 16.7005 57.5927 18.1118 59.8957 15.6924C60.8937 16.3981 63.3502 17.386 65.1925 15.6924M9 15.6924C10.0747 16.8013 11.5793 19.2207 9 20.0272C10.0747 20.5985 11.5793 22.1442 9 23.7572C10.1515 24.4628 11.7636 26.1766 9 27.3863C10.0747 28.0584 11.5793 29.7453 9 31.1163C10.1131 31.8891 11.6714 33.7776 9 35.1487C10.1899 35.8879 11.8557 37.7496 9 39.2819C10.1515 40.0547 11.7636 41.9432 9 43.3142C10.2283 44.1543 11.9478 46.1772 9 47.5483C10.1515 48.3211 11.7636 50.3104 9 52.0847C10.3434 52.7904 12.2242 54.6049 9 56.2179C10.1515 57.0244 11.7636 59.0204 9 60.5527C10.2283 61.4936 11.9478 63.7181 9 65.0891C9.92119 65.7276 11.2109 67.4279 9 69.1215C10.0747 69.7264 11.5793 71.3797 9 73.1539M65.1925 15.6924C64.4633 16.5997 63.4423 18.7368 65.1925 20.0272C64.4249 20.6657 63.3502 22.3055 65.1925 23.7572C64.4249 24.362 63.3502 25.9347 65.1925 27.3863C64.3097 28.0248 63.0738 29.6646 65.1925 31.1163C64.3865 31.7883 63.258 33.5357 65.1925 35.1487C64.3865 35.8879 63.258 37.7496 65.1925 39.2819C64.3865 40.0883 63.258 42.0239 65.1925 43.3142C64.2714 44.1207 62.9817 46.0966 65.1925 47.5483C64.3097 48.4219 63.0738 50.5524 65.1925 52.0847C64.3865 52.8912 63.258 54.8469 65.1925 56.2179C64.233 57.0244 62.8896 59.0204 65.1925 60.5527C64.3865 61.6616 63.2811 64.1214 65.3077 65.0891C64.3097 65.7276 62.8896 67.4279 65.1925 69.1215C64.1562 69.6256 62.7284 71.1377 65.3077 73.1539M9 73.1539C10.1131 72.1794 12.7769 70.8151 14.5271 73.1539C15.2948 72.3811 17.2677 71.299 19.0179 73.1539C19.824 72.3138 21.8736 71.1377 23.6239 73.1539C24.4299 72.2802 26.4796 71.0571 28.2298 73.1539C29.151 72.3474 31.454 71.2184 33.2964 73.1539C34.064 72.3474 36.083 71.2184 38.0175 73.1539C38.977 72.2466 41.3798 70.9764 43.3143 73.1539C44.3123 72.1458 46.8148 70.7345 48.8414 73.1539C49.8778 72.213 52.4341 70.8958 54.3686 73.1539C55.3665 72.1458 57.823 70.7345 59.6654 73.1539C60.7017 72.1794 63.2811 70.8151 65.3077 73.1539" stroke="black" stroke-width="1.15385"/>
<path d="M46.4046 26.7366C47.9542 27.6016 47.9542 30.5414 47.9542 33.2811V64.1722C47.9566 64.8794 47.9542 66.8077 49.5 68.7692C50.6538 69.9231 54.0665 70.907 54.9231 70.6154C55.7797 70.3238 57.265 70.0755 57.9231 69.6923C60.5769 68.1473 59.0769 66.3462 57.9231 65.6539C55.4536 64.1722 55.3027 54.1154 55.3027 33.2811C55.3027 30.5052 55.1716 26.5896 50.4133 23.4884C46.7932 21.1282 42.8217 22.0174 40.8258 22.4644C36.5307 23.4258 33.5506 25.98 31.7845 27.9643C31.2238 28.5932 30.1844 28.3402 29.9883 27.5209C29.2953 24.6137 26.8301 22.3909 23.9679 22.2005C20.7593 21.9873 17.6384 24.368 16.9454 27.8655C16.5965 29.4908 16.3944 30.698 17.0176 31.0341C17.571 31.3329 18.3687 30.3486 19.2807 28.8329C19.5742 28.3462 20.0061 27.9426 20.5355 27.7354C21.0119 27.5498 21.3163 27.6125 21.4426 27.6486C23.1402 28.1402 22.7684 29.7968 22.7684 33.2811V61.2987C22.7684 62.5493 23.7803 63.5625 25.0291 63.5625H27.8576C29.1064 63.5625 30.1182 62.5493 30.1182 61.2987V38.3545C30.1182 33.5124 32.9491 29.0643 37.403 27.1824C37.4415 27.1655 37.48 27.1498 37.5185 27.1342C39.6203 26.2679 43.4582 25.0908 46.4046 26.7366Z" fill="black"/>
<g filter="url(#filter0_d_364_125)">
<path d="M62.1039 95.2798C61.155 75.9422 58.8977 72.3268 43.855 71.2571C43.232 71.2127 43.226 70.3016 43.8478 70.2475C58.8724 68.9543 61.0769 65.3052 61.7359 45.9556C61.7479 45.607 62.2639 45.6034 62.2807 45.952C63.2296 65.2896 65.487 68.905 80.5296 69.9747C81.1526 70.0192 81.1586 70.9302 80.5368 70.9843C65.5122 72.2776 63.3078 75.9266 62.6487 95.2762C62.6367 95.6236 62.1207 95.6272 62.1039 95.2798Z" fill="#D5A940"/>
<path d="M62.1039 95.2798C61.155 75.9422 58.8977 72.3268 43.855 71.2571C43.232 71.2127 43.226 70.3016 43.8478 70.2475C58.8724 68.9543 61.0769 65.3052 61.7359 45.9556C61.7479 45.607 62.2639 45.6034 62.2807 45.952C63.2296 65.2896 65.487 68.905 80.5296 69.9747C81.1526 70.0192 81.1586 70.9302 80.5368 70.9843C65.5122 72.2776 63.3078 75.9266 62.6487 95.2762C62.6367 95.6236 62.1207 95.6272 62.1039 95.2798Z" fill="url(#paint0_linear_364_125)"/>
</g>
<path d="M18.4185 4.20297C18.4185 4.81049 18.3293 5.36016 18.1509 5.85196C17.9773 6.33895 17.7314 6.75602 17.4132 7.10318C17.0998 7.44551 16.7237 7.7107 16.2849 7.89875C15.8461 8.08679 15.364 8.18081 14.8384 8.18081C14.5781 8.18081 14.3297 8.1567 14.0935 8.10849C13.8572 8.06027 13.6378 7.99759 13.4353 7.92044C13.2376 7.8433 13.0568 7.75651 12.8929 7.66008C12.7338 7.55882 12.5988 7.45516 12.4879 7.34908L12.6687 6.15573C12.9483 6.42574 13.2762 6.63789 13.6523 6.79218C14.0332 6.94647 14.4647 7.02362 14.9469 7.02362C15.2362 7.02362 15.5062 6.97299 15.7569 6.87174C16.0125 6.76566 16.2367 6.61137 16.4296 6.40886C16.6224 6.20635 16.7815 5.95804 16.9069 5.66392C17.0323 5.36498 17.1094 5.02264 17.1383 4.63691H13.5438V3.62437H17.1022C17.0057 2.95899 16.7671 2.45513 16.3862 2.11279C16.0053 1.77045 15.5134 1.59929 14.9107 1.59929C14.7372 1.59929 14.5588 1.61375 14.3755 1.64268C14.1923 1.67161 14.0115 1.71742 13.8331 1.7801C13.6595 1.83796 13.4908 1.91269 13.3268 2.0043C13.1677 2.09591 13.0207 2.20199 12.8857 2.32253L12.6325 1.16534C12.9508 0.943545 13.3196 0.774788 13.7391 0.659069C14.1586 0.538528 14.6094 0.478258 15.0916 0.478258C15.6219 0.478258 16.092 0.567458 16.5019 0.745858C16.9165 0.924259 17.2661 1.17739 17.5506 1.50526C17.8351 1.82831 18.0496 2.21887 18.1943 2.67692C18.3437 3.13498 18.4185 3.64366 18.4185 4.20297ZM26.3452 1.67161H23.6331V8H22.2951V1.67161H19.5829V0.622907H26.3452V1.67161ZM31.379 1.63545C30.9065 1.63545 30.5111 1.73188 30.1929 1.92475C29.8795 2.11279 29.6288 2.36593 29.4407 2.68415C29.2527 2.99756 29.1177 3.35918 29.0357 3.76902C28.9586 4.17886 28.92 4.60075 28.92 5.0347C28.92 5.31435 28.9465 5.57231 28.9995 5.80857C29.0574 6.04001 29.1346 6.24252 29.231 6.41609C29.3274 6.58485 29.4383 6.71745 29.5637 6.81388C29.689 6.90549 29.824 6.9513 29.9687 6.9513C30.1278 6.9513 30.2893 6.89826 30.4533 6.79218C30.622 6.68611 30.786 6.54387 30.9451 6.36547C31.109 6.18225 31.2681 5.9725 31.4224 5.73624C31.5767 5.49999 31.7214 5.25167 31.8564 4.9913C31.9914 4.72611 32.1167 4.45851 32.2324 4.1885C32.3482 3.91849 32.447 3.66294 32.529 3.42186C32.6109 3.17596 32.6736 2.95175 32.717 2.74925C32.7652 2.54674 32.7893 2.38039 32.7893 2.25021V1.7801C32.6688 1.75599 32.4928 1.72706 32.2614 1.69331C32.0348 1.65474 31.7406 1.63545 31.379 1.63545ZM33.0063 4.60075C32.852 5.01059 32.6664 5.42766 32.4494 5.85196C32.2373 6.27627 31.9938 6.662 31.7189 7.00916C31.4441 7.35149 31.1403 7.63356 30.8077 7.85535C30.4798 8.07232 30.1278 8.18081 29.7517 8.18081C29.448 8.18081 29.1635 8.11331 28.8983 7.9783C28.6331 7.8433 28.4017 7.6432 28.204 7.37801C28.0111 7.11282 27.8592 6.78495 27.7483 6.3944C27.6374 5.99902 27.582 5.54579 27.582 5.0347C27.582 4.46092 27.6591 3.90161 27.8134 3.35677C27.9677 2.8071 28.204 2.32012 28.5222 1.89582C28.8404 1.46669 29.2454 1.12436 29.7373 0.86881C30.2291 0.608442 30.8125 0.478258 31.4875 0.478258C31.9552 0.478258 32.4205 0.509598 32.8834 0.57228C33.3462 0.630139 33.7609 0.707285 34.1273 0.803718V4.1668C34.1273 5.07809 34.1707 5.84473 34.2575 6.46672C34.3443 7.08389 34.4576 7.59498 34.5975 8H33.3318C33.2787 7.88428 33.2305 7.7107 33.1871 7.47926C33.1486 7.24783 33.1148 6.99951 33.0859 6.73432C33.0618 6.46431 33.0425 6.20153 33.028 5.94599C33.0136 5.69044 33.0063 5.48311 33.0063 5.324V4.60075ZM43.6742 1.63545C43.2017 1.63545 42.8063 1.73188 42.4881 1.92475C42.1746 2.11279 41.9239 2.36593 41.7359 2.68415C41.5478 2.99756 41.4128 3.35918 41.3309 3.76902C41.2537 4.17886 41.2151 4.60075 41.2151 5.0347C41.2151 5.31435 41.2417 5.57231 41.2947 5.80857C41.3526 6.04001 41.4297 6.24252 41.5261 6.41609C41.6226 6.58485 41.7335 6.71745 41.8588 6.81388C41.9842 6.90549 42.1192 6.9513 42.2638 6.9513C42.423 6.9513 42.5845 6.89826 42.7484 6.79218C42.9172 6.68611 43.0811 6.54387 43.2402 6.36547C43.4042 6.18225 43.5633 5.9725 43.7176 5.73624C43.8719 5.49999 44.0165 5.25167 44.1515 4.9913C44.2865 4.72611 44.4119 4.45851 44.5276 4.1885C44.6433 3.91849 44.7422 3.66294 44.8241 3.42186C44.9061 3.17596 44.9688 2.95175 45.0122 2.74925C45.0604 2.54674 45.0845 2.38039 45.0845 2.25021V1.7801C44.964 1.75599 44.788 1.72706 44.5565 1.69331C44.3299 1.65474 44.0358 1.63545 43.6742 1.63545ZM45.3015 4.60075C45.1472 5.01059 44.9615 5.42766 44.7446 5.85196C44.5324 6.27627 44.2889 6.662 44.0141 7.00916C43.7393 7.35149 43.4355 7.63356 43.1028 7.85535C42.7749 8.07232 42.423 8.18081 42.0469 8.18081C41.7431 8.18081 41.4586 8.11331 41.1934 7.9783C40.9283 7.8433 40.6968 7.6432 40.4991 7.37801C40.3063 7.11282 40.1544 6.78495 40.0435 6.3944C39.9326 5.99902 39.8771 5.54579 39.8771 5.0347C39.8771 4.46092 39.9543 3.90161 40.1086 3.35677C40.2629 2.8071 40.4991 2.32012 40.8174 1.89582C41.1356 1.46669 41.5406 1.12436 42.0324 0.86881C42.5242 0.608442 43.1076 0.478258 43.7827 0.478258C44.2504 0.478258 44.7156 0.509598 45.1785 0.57228C45.6414 0.630139 46.0561 0.707285 46.4225 0.803718V4.1668C46.4225 5.07809 46.4659 5.84473 46.5527 6.46672C46.6395 7.08389 46.7528 7.59498 46.8926 8H45.6269C45.5739 7.88428 45.5257 7.7107 45.4823 7.47926C45.4437 7.24783 45.41 6.99951 45.381 6.73432C45.3569 6.46431 45.3376 6.20153 45.3232 5.94599C45.3087 5.69044 45.3015 5.48311 45.3015 5.324V4.60075ZM49.8941 6.11956C50.14 6.29314 50.3521 6.43779 50.5305 6.55351C50.7138 6.66441 50.8801 6.75361 51.0296 6.82111C51.179 6.88379 51.3213 6.92719 51.4563 6.9513C51.5961 6.9754 51.7504 6.98746 51.9192 6.98746C52.1747 6.98746 52.4182 6.92719 52.6496 6.80665C52.8859 6.68611 53.0932 6.51253 53.2716 6.28591C53.4549 6.05447 53.5995 5.77723 53.7056 5.45418C53.8165 5.12631 53.8719 4.75745 53.8719 4.34762C53.8719 3.94742 53.8333 3.5858 53.7562 3.26275C53.6839 2.93488 53.5754 2.65763 53.4307 2.43102C53.2861 2.19958 53.1101 2.02118 52.9028 1.89582C52.7003 1.77045 52.4688 1.70777 52.2085 1.70777C52.0011 1.70777 51.789 1.75358 51.572 1.84519C51.355 1.9368 51.1429 2.07181 50.9356 2.25021C50.733 2.42861 50.5426 2.65281 50.3642 2.92282C50.1858 3.18801 50.0291 3.49419 49.8941 3.84134V6.11956ZM48.5561 4.49226C48.5561 4.04385 48.5513 3.62919 48.5416 3.24828C48.5368 2.86255 48.5223 2.51057 48.4982 2.19235C48.4741 1.8693 48.4379 1.57759 48.3897 1.31722C48.3415 1.05685 48.2764 0.825415 48.1945 0.622907H49.4963C49.5493 0.748269 49.6024 0.926669 49.6554 1.15811C49.7084 1.38472 49.7518 1.66438 49.7856 1.99707C49.9543 1.77528 50.1376 1.57036 50.3353 1.38231C50.5378 1.19427 50.7499 1.03516 50.9717 0.904972C51.1983 0.769966 51.4346 0.666301 51.6805 0.593977C51.9312 0.516831 52.1916 0.478258 52.4616 0.478258C52.8714 0.478258 53.2451 0.569869 53.5826 0.753091C53.925 0.931491 54.2143 1.18463 54.4505 1.5125C54.6916 1.83555 54.8772 2.22128 55.0074 2.66969C55.1424 3.11328 55.2099 3.60026 55.2099 4.13064C55.2099 4.74781 55.1231 5.30712 54.9496 5.80857C54.776 6.3052 54.5397 6.7295 54.2408 7.08148C53.9467 7.43346 53.5995 7.70588 53.1993 7.89875C52.7991 8.08679 52.3724 8.18081 51.9192 8.18081C51.7263 8.18081 51.5431 8.16152 51.3695 8.12295C51.2007 8.08438 51.0344 8.03134 50.8705 7.96384C50.7113 7.89633 50.5522 7.81437 50.3931 7.71793C50.234 7.61668 50.0677 7.50578 49.8941 7.38524V9.08487C49.8941 9.37416 49.8965 9.63453 49.9013 9.86597C49.911 10.1022 49.923 10.3192 49.9375 10.5169C49.9519 10.7146 49.9712 10.8954 49.9953 11.0593C50.0194 11.2281 50.046 11.3896 50.0749 11.5439H48.5561V4.49226ZM63.1295 1.67161H60.4173V8H59.0793V1.67161H56.3671V0.622907H63.1295V1.67161Z" fill="black"/>
<defs>
<filter id="filter0_d_364_125" x="42.4615" y="45.6924" width="39.4615" height="51.6923" filterUnits="userSpaceOnUse" color-interpolation-filters="sRGB">
<feFlood flood-opacity="0" result="BackgroundImageFix"/>
<feColorMatrix in="SourceAlpha" type="matrix" values="0 0 0 0 0 0 0 0 0 0 0 0 0 0 0 0 0 0 127 0" result="hardAlpha"/>
<feOffset dy="0.923077"/>
<feGaussianBlur stdDeviation="0.461538"/>
<feComposite in2="hardAlpha" operator="out"/>
<feColorMatrix type="matrix" values="0 0 0 0 0 0 0 0 0 0 0 0 0 0 0 0 0 0 0.25 0"/>
<feBlend mode="normal" in2="BackgroundImageFix" result="effect1_dropShadow_364_125"/>
<feBlend mode="normal" in="SourceGraphic" in2="effect1_dropShadow_364_125" result="shape"/>
</filter>
<linearGradient id="paint0_linear_364_125" x1="62.1923" y1="45.6924" x2="62.1923" y2="95.5385" gradientUnits="userSpaceOnUse">
<stop stop-color="#FFDA79"/>
<stop offset="1" stop-color="#F1B20B" stop-opacity="0"/>
</linearGradient>
</defs>
</svg>
