<svg width="32" height="32" viewBox="0 0 32 32" fill="none" xmlns="http://www.w3.org/2000/svg">
<circle cx="16.335" cy="16.335" r="13.335" fill="white"/>
<path d="M12.3867 29.0533C13.6667 29.44 14.96 29.6667 16.3333 29.6667C19.8696 29.6667 23.2609 28.2619 25.7614 25.7614C28.2619 23.2609 29.6667 19.8696 29.6667 16.3333C29.6667 14.5824 29.3218 12.8486 28.6517 11.2309C27.9817 9.61321 26.9995 8.14336 25.7614 6.90524C24.5233 5.66713 23.0535 4.685 21.4358 4.01494C19.8181 3.34488 18.0843 3 16.3333 3C14.5824 3 12.8486 3.34488 11.2309 4.01494C9.61321 4.685 8.14336 5.66713 6.90524 6.90524C4.40476 9.40573 3 12.7971 3 16.3333C3 22 6.56 26.8667 11.5867 28.7867C11.4667 27.7467 11.3467 26.0267 11.5867 24.84L13.12 18.2533C13.12 18.2533 12.7333 17.48 12.7333 16.2533C12.7333 14.4133 13.88 13.04 15.1867 13.04C16.3333 13.04 16.8667 13.88 16.8667 14.96C16.8667 16.1067 16.1067 17.7467 15.72 19.32C15.4933 20.6267 16.4133 21.7733 17.7467 21.7733C20.12 21.7733 21.96 19.24 21.96 15.6667C21.96 12.4667 19.6667 10.28 16.3733 10.28C12.6133 10.28 10.4 13.08 10.4 16.0267C10.4 17.1733 10.7733 18.3333 11.3867 19.0933C11.5067 19.1733 11.5067 19.28 11.4667 19.48L11.08 20.9333C11.08 21.16 10.9333 21.24 10.7067 21.08C9 20.3333 8.01333 17.9067 8.01333 15.9467C8.01333 11.7333 11 7.90667 16.76 7.90667C21.3467 7.90667 24.92 11.2 24.92 15.5733C24.92 20.16 22.08 23.84 18.0133 23.84C16.72 23.84 15.4533 23.1467 15 22.3333L14.1067 25.4933C13.8 26.64 12.96 28.1733 12.3867 29.0933V29.0533Z" fill="#E60023"/>
</svg>
