<svg width="32" height="32" viewBox="0 0 32 32" fill="none" xmlns="http://www.w3.org/2000/svg">
<circle cx="16.335" cy="16.335" r="13.335" fill="white"/>
<path d="M16.3333 3C8.97333 3 3 8.97333 3 16.3333C3 23.6933 8.97333 29.6667 16.3333 29.6667C23.6933 29.6667 29.6667 23.6933 29.6667 16.3333C29.6667 8.97333 23.6933 3 16.3333 3ZM22.52 12.0667C22.32 14.1733 21.4533 19.2933 21.0133 21.6533C20.8267 22.6533 20.4533 22.9867 20.1067 23.0267C19.3333 23.0933 18.7467 22.52 18 22.0267C16.8267 21.2533 16.16 20.7733 15.0267 20.0267C13.7067 19.16 14.56 18.68 15.32 17.9067C15.52 17.7067 18.9333 14.6 19 14.32C19.0093 14.2776 19.008 14.2336 18.9964 14.1917C18.9848 14.1499 18.9631 14.1116 18.9333 14.08C18.8533 14.0133 18.7467 14.04 18.6533 14.0533C18.5333 14.08 16.6667 15.32 13.0267 17.7733C12.4933 18.1333 12.0133 18.32 11.5867 18.3067C11.1067 18.2933 10.2 18.04 9.52 17.8133C8.68 17.5467 8.02667 17.4 8.08 16.9333C8.10667 16.6933 8.44 16.4533 9.06667 16.2C12.96 14.5067 15.5467 13.3867 16.84 12.8533C20.5467 11.3067 21.3067 11.04 21.8133 11.04C21.92 11.04 22.1733 11.0667 22.3333 11.2C22.4667 11.3067 22.5067 11.4533 22.52 11.56C22.5067 11.64 22.5333 11.88 22.52 12.0667Z" fill="#24A2DF"/>
</svg>
